<?xml version="1.0" encoding="UTF-8"?>
<svg id="Lager_1" xmlns="http://www.w3.org/2000/svg" version="1.1" viewBox="0 0 3628.3 1133.9">
  <!-- Generator: Adobe Illustrator 30.2.1, SVG Export Plug-In . SVG Version: 2.1.1 Build 1)  -->
  <defs>
    <style>
      .st0 {
        fill: none;
        stroke: #1d1d1b;
        stroke-miterlimit: 10;
        stroke-width: 29.7px;
      }
    </style>
  </defs>
  <polygon class="st0" points="1782 275 1933.7 302.5 2563.6 185.7 2052.7 588 2209.3 1074.1 1799.4 640.5 1389.6 1074.1 1546.2 588 1035.3 156.6 1642.9 314.3 1782 275"/>
  <polygon class="st0" points="1424.7 322.7 1640.8 447.6 1512.5 454.4 1424.7 322.7"/>
  <polygon class="st0" points="2148.3 321.7 1932.2 446.6 2060.5 453.4 2148.3 321.7"/>
  <polyline class="st0" points="1488.8 781.4 1799.4 640.5 2120.2 805.1"/>
  <polyline class="st0" points="1411.2 470.8 1154.1 707.1 1546.2 588"/>
  <polyline class="st0" points="2181 470.8 2427.9 673.4 2052.7 588"/>
  <path class="st0" d="M2062.8,237.8"/>
  <polyline class="st0" points="1455.1 267.1 1285.6 74.7 1418.5 34.7 1789.5 277.4"/>
  <polyline class="st0" points="2103.7 268.3 2273.2 75.9 2140.4 34.7 1769.4 277.4"/>
  <polyline class="st0" points="1662.8 792.8 1805.1 945.2 1922 787.7"/>
</svg>