<?xml version="1.0" encoding="UTF-8"?>
<svg id="Lager_1" xmlns="http://www.w3.org/2000/svg" version="1.1" viewBox="0 0 3628.3 1133.9">
  <!-- Generator: Adobe Illustrator 30.2.1, SVG Export Plug-In . SVG Version: 2.1.1 Build 1)  -->
  <defs>
    <style>
      .st0 {
        fill: none;
        stroke: #1d1d1b;
        stroke-miterlimit: 10;
        stroke-width: 29.7px;
      }
    </style>
  </defs>
  <polyline class="st0" points="1781.5 391.6 2317.5 247.8 2102.7 588 2209.3 1014.1 1800.5 752.9 1389.6 1014.1 1476.2 588 1243.8 234.3 1793.5 391.6"/>
  <polygon class="st0" points="1496.8 389.3 1712.9 559.4 1594.6 566.2 1496.8 389.3"/>
  <polygon class="st0" points="2077.5 390.1 1861.4 560.3 1989.7 567.1 2077.5 390.1"/>
  <polyline class="st0" points="1406.4 474.7 1154.1 707.1 1461.8 688.1"/>
  <polyline class="st0" points="2175.2 471.4 2427.9 673.4 2119.9 652.3"/>
  <path class="st0" d="M2062.8,237.8"/>
  <polyline class="st0" points="1483.4 300.1 1285.6 74.7 1418.5 34.7 1793.5 391.6"/>
  <polyline class="st0" points="2063.9 315.1 2273.2 75.9 2140.2 85.8 1782.3 395.3"/>
</svg>