<?xml version="1.0" encoding="UTF-8"?>
<svg id="Lager_1" xmlns="http://www.w3.org/2000/svg" version="1.1" viewBox="0 0 3628.3 1133.9">
  <!-- Generator: Adobe Illustrator 30.3.0, SVG Export Plug-In . SVG Version: 2.1.3 Build 182)  -->
  <defs>
    <style>
      .st0 {
        fill: none;
        stroke: #fff;
        stroke-width: 29.3px;
      }

      .st0, .st1 {
        stroke-miterlimit: 10;
      }

      .st1 {
        fill: #fff;
        stroke: #000;
      }
    </style>
  </defs>
  <polyline class="st0" points="1498.3 386.5 2026.7 244.8 1814.9 580.1 1920 1000.1 1517 742.7 1112 1000.1 1197.4 580.1 968.3 231.5 1510.1 386.5"/>
  <polygon class="st0" points="1217.7 384.2 1430.7 551.9 1314.1 558.6 1217.7 384.2"/>
  <polygon class="st0" points="1790.1 385 1577.1 552.8 1703.5 559.5 1790.1 385"/>
  <polyline class="st0" points="1128.6 468.4 879.9 697.5 1183.2 678.8"/>
  <polyline class="st0" points="1886.4 465.2 2135.5 664.3 1831.9 643.5"/>
  <path class="st0" d="M1775.6,234.9"/>
  <polyline class="st0" points="1204.5 296.3 1009.5 74.1 1140.5 34.7 1510.1 386.5"/>
  <polyline class="st0" points="1776.7 311.1 1996 68.9 1863.3 23.6 1499.1 390.2"/>
  <polyline class="st0" points="1018.4 680 898.4 840.6 1015.2 920.1 1151.5 816.3"/>
  <polyline class="st0" points="1998.5 657.2 2118.6 817.9 2001.8 897.4 1865.5 793.5"/>
  <polyline class="st0" points="1232.6 933.1 1200.2 1048.3 1375.4 1072.6 1524.7 864.9 1719.4 1069.4 1884.9 1035.3 1833 946.1"/>
  <polyline class="st0" points="1334.9 856.8 1506.9 399.2 1695.1 864.9"/>
  <polyline class="st0" points="1292.1 167.4 1382.5 102.9 1509.2 228.4 1624 102.8 1724.1 172.5"/>
  <polyline class="st1" points="1324.2 607.8 1197.4 580.1 879.9 697.5"/>
  <line class="st1" x1="1209.1" y1="614.2" x2="1335.9" y2="641.8"/>
  <line class="st1" x1="1220.8" y1="647.2" x2="1347.6" y2="674.8"/>
  <line class="st1" x1="1667.9" y1="674.8" x2="1794.7" y2="647.2"/>
  <line class="st1" x1="1679.6" y1="640.7" x2="1806.4" y2="613.1"/>
  <polyline class="st1" points="1691.3 607.8 1818.1 580.1 2128.8 659.8"/>
  <polyline class="st1" points="1288.6 324.7 1163.9 111 1377.6 345.7"/>
  <polyline class="st1" points="1741.2 325 1865.9 111.3 1652.2 346.1"/>
  <line class="st1" x1="1448.9" y1="964.1" x2="1615.6" y2="964.1"/>
</svg>