<?xml version="1.0" encoding="UTF-8"?>
<svg id="Lager_1" xmlns="http://www.w3.org/2000/svg" version="1.1" viewBox="0 0 500 100">
  <!-- Generator: Adobe Illustrator 30.2.1, SVG Export Plug-In . SVG Version: 2.1.1 Build 1)  -->
  <defs>
    <style>
      .st0 {
        fill: #50f;
      }

      .st1 {
        fill: #f0f;
      }

      .st2 {
        fill: blue;
      }

      .st3 {
        fill: #3900ff;
      }

      .st4 {
        fill: #c600ff;
      }

      .st5 {
        fill: #7100ff;
      }

      .st6 {
        fill: #a0f;
      }

      .st7 {
        fill: #e300ff;
      }

      .st8 {
        fill: #1c00ff;
      }

      .st9 {
        fill: #8e00ff;
      }
    </style>
  </defs>
  <path class="st1" d="M451.6,100h-3.8c0-48.7-88.8-88.3-198-88.3S51.9,51.3,51.9,100h-3.8c0-24.9,21.2-48.1,59.6-65.5C145.8,17.4,196.3,8,249.9,8s104.1,9.4,142.1,26.6c38.5,17.4,59.6,40.6,59.6,65.5Z"/>
  <path class="st7" d="M432,100h-3.7c0-43.7-80-79.2-178.4-79.2S71.4,56.3,71.4,100h-3.7c0-22.5,19.1-43.5,53.9-59.1,34.3-15.4,79.8-23.9,128.2-23.9s94,8.5,128.2,23.9c34.8,15.6,53.9,36.6,53.9,59.1Z"/>
  <path class="st4" d="M412.3,100h-3.7c0-38.7-71.3-70.2-158.9-70.2S90.9,61.3,90.9,100h-3.7c0-20.1,17.1-38.8,48.2-52.7,30.5-13.7,71.2-21.2,114.4-21.2s83.8,7.5,114.4,21.2c31.1,13.9,48.2,32.6,48.2,52.7Z"/>
  <path class="st6" d="M392.7,100h-3.6c0-33.7-62.5-61.1-139.3-61.1s-139.3,27.4-139.3,61.1h-3.6c0-17.7,15.1-34.1,42.4-46.3,26.8-11.9,62.5-18.5,100.5-18.5s73.7,6.6,100.5,18.5c27.4,12.2,42.4,28.6,42.4,46.3Z"/>
  <path class="st9" d="M373,100h-3.6c0-28.7-53.7-52.1-119.8-52.1s-119.8,23.4-119.8,52.1h-3.6c0-15.3,13-29.4,36.7-39.9,23.1-10.2,53.9-15.8,86.7-15.8s63.6,5.6,86.7,15.8c23.7,10.4,36.7,24.6,36.7,39.9Z"/>
  <path class="st5" d="M353.3,100h-3.5c0-23.7-45-43-100.2-43s-100.2,19.3-100.2,43h-3.5c0-26.1,45.6-46.6,103.8-46.6s103.8,20.5,103.8,46.6Z"/>
  <path class="st0" d="M333.7,100h-3.5c0-18.7-36.2-34-80.7-34s-80.7,15.3-80.7,34h-3.5c0-21,37-37.5,84.2-37.5s84.2,16.5,84.2,37.5Z"/>
  <path class="st3" d="M314,99.9h-3.4c0-13.8-27.4-24.9-61.1-24.9s-61.1,11.2-61.1,24.9h-3.4c0-16.2,27.8-28.4,64.6-28.4s64.6,12.2,64.6,28.4Z"/>
  <path class="st8" d="M294.4,99.9h-3.4c0-8.9-18.3-15.9-41.6-15.9s-41.6,7-41.6,15.9h-3.4c0-11.2,18.9-19.3,45-19.3s45,8.1,45,19.3Z"/>
  <path class="st2" d="M274.7,99.9h-3.4c0-3.4-8.2-6.8-22.1-6.8s-22.1,3.5-22.1,6.8h-3.4c0-7.5,13.7-10.2,25.4-10.2s25.4,2.7,25.4,10.2Z"/>
</svg>