<?xml version="1.0" encoding="UTF-8"?>
<svg id="Lager_1" xmlns="http://www.w3.org/2000/svg" version="1.1" viewBox="0 0 200 217.5">
  <!-- Generator: Adobe Illustrator 30.2.1, SVG Export Plug-In . SVG Version: 2.1.1 Build 1)  -->
  <defs>
    <style>
      .st0 {
        fill: #515151;
      }

      .st1 {
        fill: #999;
      }
    </style>
  </defs>
  <polygon class="st0" points="1.1 1 199.4 1 199.4 216.4 1.1 216.4 1.1 1 1.1 1"/>
  <path class="st1" d="M57.7,38.2c8.3-6.5,17.8-11.2,28.5-11.3,12,0,20.4,4.3,25.6,13.2,4.3-3.5,8.5-6.5,13.2-9,5.2-2.7,10.9-4.1,17.2-4.2,8.2,0,15.1,2.6,20.6,7.9,5.5,5.3,8.3,13,8.5,23.1v73.5h-28.6v-64.2c0-2.7,0-5.3-.3-8-.2-2.5-1-4.6-2.4-6.3-1.2-1.5-3.4-2.4-6.8-2.5-8,.2-14.3,4.7-18.8,11.1v70h-28.3s0-64.2,0-64.2c.2-7.6.5-16.6-9.5-16.8-8,.2-14.3,4.7-18.8,11.1v70h-28.3V29h28.3v9.2h0Z"/>
  <polygon class="st1" points="57.7 131.4 86.1 131.4 86.1 159.7 57.7 159.7 57.7 131.4 57.7 131.4"/>
  <polygon class="st1" points="114.4 131.4 142.7 131.4 142.7 159.7 114.4 159.7 114.4 131.4 114.4 131.4"/>
  <polygon class="st1" points="29.4 159.7 57.7 159.7 57.7 188 29.4 188 29.4 159.7 29.4 159.7"/>
  <polygon class="st1" points="86.1 159.7 114.4 159.7 114.4 188 86.1 188 86.1 159.7 86.1 159.7"/>
  <polygon class="st1" points="142.7 159.7 171.1 159.7 171.1 188 142.7 188 142.7 159.7 142.7 159.7"/>
</svg>