<?xml version="1.0" encoding="UTF-8"?>
<svg id="Lager_1" xmlns="http://www.w3.org/2000/svg" version="1.1" viewBox="0 0 200 200">
  <!-- Generator: Adobe Illustrator 30.2.1, SVG Export Plug-In . SVG Version: 2.1.1 Build 1)  -->
  <defs>
    <style>
      .st0 {
        fill: none;
        stroke: #000;
        stroke-miterlimit: 10;
        stroke-width: 2.8px;
      }
    </style>
  </defs>
  <polygon class="st0" points="112.1 115.3 107.9 30.5 109.4 30.5 106.4 9.1 94.3 9.1 91.8 30.5 93.3 30.5 90.4 115.3 85.5 115.3 85.5 174.5 116.3 174.5 116.3 115.3 112.1 115.3"/>
  <polygon class="st0" points="85.7 162.5 85.7 124.3 78 124.5 78 118.4 63 118.4 63 130.8 21.8 130.4 21.8 121.3 12.3 121.3 12.3 158.9 21.8 158.9 21.8 153.6 63 161.3 63 177.6 78 177.6 78 162.5 85.7 162.5"/>
  <polygon class="st0" points="180 121.3 180 130.4 138.3 130.8 138.3 118.4 123.3 118.4 123.3 124.2 116.5 124.2 116.5 162.4 123.3 162.5 123.3 177.6 138.3 177.6 138.3 161.4 180 153.6 180 158.9 189.6 158.9 189.6 121.3 180 121.3"/>
  <rect class="st0" x="66.2" y="177.3" width="9.4" height="17.1"/>
  <rect class="st0" x="126" y="177.3" width="9.4" height="17.1"/>
  <polygon class="st0" points="108.9 125.7 93.8 125.7 95.5 88.5 106.9 88.5 108.9 125.7"/>
  <line class="st0" x1="16.8" y1="121.5" x2="16.8" y2="58.2"/>
  <line class="st0" x1="184.9" y1="121.5" x2="184.9" y2="58.2"/>
</svg>